<svg width="100" height="100" viewBox="0 0 100 100" fill="none" xmlns="http://www.w3.org/2000/svg">
<path d="M29.5743 27.92V16.96C29.5743 14.0532 30.6328 11.2654 32.5169 9.21001C34.401 7.1546 36.9565 5.99988 39.621 5.99988H59.7145C62.3791 5.99988 64.9345 7.1546 66.8186 9.21001C68.7027 11.2654 69.7612 14.0532 69.7612 16.96V27.92" stroke="#08172B" stroke-width="8" stroke-linecap="round" stroke-linejoin="round"/>
<path d="M4.00085 57.1467C18.1656 64.353 33.8063 68.1068 49.6678 68.1068C65.5294 68.1068 81.1701 64.353 95.3348 57.1467" stroke="#08172B" stroke-width="8" stroke-linecap="round" stroke-linejoin="round"/>
<circle cx="49.6679" cy="48.0134" r="5.48004" fill="#FB5950"/>
<path d="M4.00085 38.037C4.00085 35.3538 5.07004 32.7805 6.9732 30.8832C8.87636 28.9859 11.4576 27.92 14.1491 27.92H85.1866C87.8781 27.92 90.4593 28.9859 92.3625 30.8832C94.2657 32.7805 95.3348 35.3538 95.3348 38.037V83.5635C95.3348 86.2467 94.2657 88.82 92.3625 90.7173C90.4593 92.6146 87.8781 93.6805 85.1866 93.6805H14.1491C11.4576 93.6805 8.87636 92.6146 6.9732 90.7173C5.07004 88.82 4.00085 86.2467 4.00085 83.5635V38.037Z" stroke="#08172B" stroke-width="8" stroke-linecap="round" stroke-linejoin="round"/>
</svg>
