<svg width="100" height="101" viewBox="0 0 100 101" fill="none" xmlns="http://www.w3.org/2000/svg">
<path d="M65.2596 4V23.5958C65.2596 24.8951 65.7757 26.1412 66.6945 27.0599C67.6132 27.9787 68.8593 28.4948 70.1585 28.4948H89.7544" stroke="#08172B" stroke-width="8" stroke-linecap="round" stroke-linejoin="round"/>
<path d="M21.1647 75.1V13.7979C21.1647 11.1994 22.197 8.70721 24.0345 6.86974C25.8719 5.03228 28.3641 4 30.9627 4H65.2554L89.7502 28.4948V81.4" stroke="#08172B" stroke-width="8" stroke-linecap="round" stroke-linejoin="round"/>
<path d="M58.96 58.04C59.72 58.04 60.08 58.4 60.08 59.16V61.88C60.08 62.6 59.72 63 58.96 63H40.44C39.72 63 39.32 62.6 39.32 61.88V59.12C39.32 58.44 39.56 57.92 39.96 57.72C42.16 56.72 43.4 55 43.4 52.76C43.4 52.12 43.32 51.48 43.16 50.88H40.44C39.68 50.88 39.32 50.48 39.32 49.72V47.92C39.32 47.16 39.72 46.76 40.44 46.76H41.8C41.44 45.56 41.12 44.2 41.12 42.64C41.12 37.6 45.04 34.2 50.72 34.2C54.88 34.2 57.92 36.04 59.8 39.16C60.2 39.84 60.08 40.36 59.44 40.64L56.8 41.8C56.12 42.08 55.56 42.08 55.2 41.6C54 40.04 52.64 39.2 50.72 39.2C48.12 39.2 46.68 40.8 46.68 43.6C46.68 44.68 46.84 45.72 47.04 46.76H54.52C55.24 46.76 55.64 47.2 55.64 47.92V49.72C55.64 50.48 55.24 50.88 54.52 50.88H48.04C48.2 51.64 48.28 52.44 48.28 53.2C48.28 55.24 47.04 57.16 45.2 57.92V58.04H58.96Z" fill="#FB5950"/>
<path d="M93.549 82.1534C93.549 79.9443 91.7581 78.1534 89.549 78.1534C87.3398 78.1534 85.549 79.9443 85.549 82.1534H89.549H93.549ZM64.1491 76.571L68.136 76.8943C68.2263 75.7809 67.8469 74.6805 67.0896 73.8593C66.3323 73.0381 65.2662 72.571 64.1491 72.571V76.571ZM10 76.571V72.571C7.79086 72.571 6 74.3619 6 76.571H10ZM89.549 82.1534H85.549C85.549 87.0452 84.9224 89.1614 84.033 90.216C83.3081 91.0755 81.6027 92.1094 76.4304 92.1094V96.1094V100.109C82.1941 100.109 87.0481 99.0498 90.1484 95.3737C93.0843 91.8926 93.549 87.0308 93.549 82.1534H89.549ZM76.4304 96.1094V92.1094C74.6322 92.1094 72.4565 91.567 70.8386 89.8193C69.2508 88.1042 67.52 84.4921 68.136 76.8943L64.1491 76.571L60.1622 76.2478C59.4385 85.1738 61.3362 91.3309 64.968 95.254C68.5696 99.1445 73.2043 100.109 76.4304 100.109V96.1094ZM64.1491 76.571V72.571H10V76.571V80.571H64.1491V76.571ZM10 76.571H6V86.6193H10H14V76.571H10ZM10 86.6193H6C6 90.0693 8.0525 93.4133 10.4333 95.7091C12.9042 98.0918 16.5006 100.109 20.6065 100.109V96.1094V92.1094C19.1301 92.1094 17.4232 91.3358 15.9864 89.9504C14.4596 88.4781 14 87.0771 14 86.6193H10ZM20.6065 96.1094V100.109H76.4304V96.1094V92.1094H20.6065V96.1094Z" fill="#08172B"/>
</svg>
