<svg width="100" height="100" viewBox="0 0 100 100" fill="none" xmlns="http://www.w3.org/2000/svg">
<path d="M42.7767 20.977H26.9792C19.2857 20.977 15.439 20.977 12.5005 22.4742C9.91574 23.7912 7.81425 25.8927 6.49723 28.4775C4.99999 31.416 5 35.2627 5 42.9562L5 48.451C5.00001 52.7181 5.00001 54.8516 5.69712 56.5346C6.6266 58.7785 8.40942 60.5613 10.6534 61.4908C12.3364 62.1879 14.4699 62.1879 18.737 62.1879V81.6487C18.737 82.7118 18.737 83.2433 18.7811 83.6911C19.2093 88.0391 22.6494 91.4791 26.9974 91.9073C27.4451 91.9514 27.9766 91.9514 29.0397 91.9514C30.1028 91.9514 30.6344 91.9514 31.0821 91.9073C35.4301 91.4791 38.8701 88.0391 39.2984 83.6911C39.3425 83.2433 39.3425 82.7118 39.3425 81.6487V62.1879H42.7767C50.8652 62.1879 60.7596 66.5237 68.393 70.6849C72.8462 73.1125 75.0728 74.3263 76.5311 74.1477C77.8834 73.9821 78.906 73.3749 79.6986 72.2668C80.5535 71.0719 80.5535 68.681 80.5535 63.8992V19.2657C80.5535 14.4839 80.5535 12.093 79.6986 10.8981C78.906 9.79004 77.8834 9.18286 76.5311 9.01723C75.0728 8.83862 72.8462 10.0524 68.393 12.48C60.7596 16.6412 50.8652 20.977 42.7767 20.977Z" stroke="#08172B" stroke-width="8" stroke-linecap="round" stroke-linejoin="round"/>
<path d="M94.7136 32.423V50.7389" stroke="#FB5950" stroke-width="8" stroke-linecap="round" stroke-linejoin="round"/>
</svg>
